<mxfile host="app.diagrams.net" agent="Mozilla/5.0 (Windows NT 10.0; Win64; x64) AppleWebKit/537.36 (KHTML, like Gecko) Chrome/133.0.0.0 Safari/537.36" version="26.1.0">
  <diagram name="Page-1" id="RSDadMBLgnSt2ykcTqH-">
    <mxGraphModel dx="728" dy="869" grid="0" gridSize="10" guides="1" tooltips="1" connect="1" arrows="1" fold="1" page="0" pageScale="1" pageWidth="850" pageHeight="1100" math="0" shadow="0">
      <root>
        <mxCell id="0" />
        <mxCell id="1" parent="0" />
        <mxCell id="ZqB0qPXCSpkkonuUvB8l-1" value="" style="rounded=0;whiteSpace=wrap;html=1;" parent="1" vertex="1">
          <mxGeometry x="50" y="190" width="300" height="670" as="geometry" />
        </mxCell>
        <mxCell id="ZqB0qPXCSpkkonuUvB8l-2" value="Home Screen" style="text;html=1;align=center;verticalAlign=middle;whiteSpace=wrap;rounded=0;" parent="1" vertex="1">
          <mxGeometry x="155" y="140" width="90" height="30" as="geometry" />
        </mxCell>
        <mxCell id="ZqB0qPXCSpkkonuUvB8l-3" value="" style="rounded=0;whiteSpace=wrap;html=1;" parent="1" vertex="1">
          <mxGeometry x="70" y="276" width="125" height="120" as="geometry" />
        </mxCell>
        <mxCell id="ZqB0qPXCSpkkonuUvB8l-4" value="Check-In datetime picker" style="text;html=1;align=center;verticalAlign=middle;whiteSpace=wrap;rounded=0;" parent="1" vertex="1">
          <mxGeometry x="87.5" y="304" width="90" height="64" as="geometry" />
        </mxCell>
        <mxCell id="ZqB0qPXCSpkkonuUvB8l-5" value="&lt;b&gt;&lt;font style=&quot;font-size: 17px;&quot;&gt;Campground Title&lt;/font&gt;&lt;/b&gt;" style="text;html=1;align=center;verticalAlign=middle;whiteSpace=wrap;rounded=0;" parent="1" vertex="1">
          <mxGeometry x="107.5" y="210" width="185" height="30" as="geometry" />
        </mxCell>
        <mxCell id="ZqB0qPXCSpkkonuUvB8l-9" value="Reserve Now Button" style="rounded=1;whiteSpace=wrap;html=1;" parent="1" vertex="1">
          <mxGeometry x="140" y="789" width="120" height="60" as="geometry" />
        </mxCell>
        <mxCell id="ZqB0qPXCSpkkonuUvB8l-10" style="edgeStyle=none;curved=1;rounded=0;orthogonalLoop=1;jettySize=auto;html=1;exitX=1;exitY=0.5;exitDx=0;exitDy=0;fontSize=12;startSize=8;endSize=8;" parent="1" source="ZqB0qPXCSpkkonuUvB8l-3" target="ZqB0qPXCSpkkonuUvB8l-3" edge="1">
          <mxGeometry relative="1" as="geometry" />
        </mxCell>
        <mxCell id="ZqB0qPXCSpkkonuUvB8l-11" style="edgeStyle=none;curved=1;rounded=0;orthogonalLoop=1;jettySize=auto;html=1;exitX=1;exitY=0.5;exitDx=0;exitDy=0;fontSize=12;startSize=8;endSize=8;" parent="1" source="ZqB0qPXCSpkkonuUvB8l-3" target="ZqB0qPXCSpkkonuUvB8l-3" edge="1">
          <mxGeometry relative="1" as="geometry" />
        </mxCell>
        <mxCell id="ZqB0qPXCSpkkonuUvB8l-12" value="" style="rounded=0;whiteSpace=wrap;html=1;" parent="1" vertex="1">
          <mxGeometry x="208" y="276" width="125" height="120" as="geometry" />
        </mxCell>
        <mxCell id="ZqB0qPXCSpkkonuUvB8l-13" value="Check-Out&lt;span style=&quot;background-color: transparent; color: light-dark(rgb(0, 0, 0), rgb(255, 255, 255));&quot;&gt;&amp;nbsp;datetime picker&lt;/span&gt;" style="text;html=1;align=center;verticalAlign=middle;whiteSpace=wrap;rounded=0;" parent="1" vertex="1">
          <mxGeometry x="225.5" y="304" width="90" height="64" as="geometry" />
        </mxCell>
        <mxCell id="ZqB0qPXCSpkkonuUvB8l-16" value="" style="rounded=0;whiteSpace=wrap;html=1;" parent="1" vertex="1">
          <mxGeometry x="79.5" y="433" width="241" height="60" as="geometry" />
        </mxCell>
        <mxCell id="ZqB0qPXCSpkkonuUvB8l-14" value="Number of Guests:" style="text;html=1;align=center;verticalAlign=middle;whiteSpace=wrap;rounded=0;" parent="1" vertex="1">
          <mxGeometry x="87.5" y="448" width="130" height="30" as="geometry" />
        </mxCell>
        <mxCell id="ZqB0qPXCSpkkonuUvB8l-17" value="" style="rounded=0;whiteSpace=wrap;html=1;" parent="1" vertex="1">
          <mxGeometry x="79.5" y="520" width="241" height="60" as="geometry" />
        </mxCell>
        <mxCell id="ZqB0qPXCSpkkonuUvB8l-15" value="Number of Campsites:" style="text;html=1;align=center;verticalAlign=middle;whiteSpace=wrap;rounded=0;" parent="1" vertex="1">
          <mxGeometry x="87.5" y="535" width="130" height="30" as="geometry" />
        </mxCell>
        <mxCell id="ZqB0qPXCSpkkonuUvB8l-18" value="Wheel selector" style="whiteSpace=wrap;html=1;aspect=fixed;" parent="1" vertex="1">
          <mxGeometry x="260" y="442" width="46" height="46" as="geometry" />
        </mxCell>
        <mxCell id="ZqB0qPXCSpkkonuUvB8l-19" value="Wheel selector" style="whiteSpace=wrap;html=1;aspect=fixed;" parent="1" vertex="1">
          <mxGeometry x="262" y="527" width="46" height="46" as="geometry" />
        </mxCell>
        <mxCell id="uVQUPUnWgr1By7ov-Xta-1" value="" style="rounded=0;whiteSpace=wrap;html=1;" vertex="1" parent="1">
          <mxGeometry x="73" y="609" width="262" height="165" as="geometry" />
        </mxCell>
        <mxCell id="uVQUPUnWgr1By7ov-Xta-2" value="Check-In text" style="text;html=1;align=center;verticalAlign=middle;whiteSpace=wrap;rounded=0;" vertex="1" parent="1">
          <mxGeometry x="108" y="631" width="201" height="30" as="geometry" />
        </mxCell>
        <mxCell id="uVQUPUnWgr1By7ov-Xta-3" value="Check-Out text" style="text;html=1;align=center;verticalAlign=middle;whiteSpace=wrap;rounded=0;" vertex="1" parent="1">
          <mxGeometry x="105" y="660" width="201" height="30" as="geometry" />
        </mxCell>
        <mxCell id="uVQUPUnWgr1By7ov-Xta-4" value="Number of Guests text" style="text;html=1;align=center;verticalAlign=middle;whiteSpace=wrap;rounded=0;" vertex="1" parent="1">
          <mxGeometry x="103.5" y="690" width="201" height="30" as="geometry" />
        </mxCell>
        <mxCell id="uVQUPUnWgr1By7ov-Xta-5" value="Number of Campsites&amp;nbsp;&lt;span style=&quot;background-color: transparent; color: light-dark(rgb(0, 0, 0), rgb(255, 255, 255));&quot;&gt;text&lt;/span&gt;" style="text;html=1;align=center;verticalAlign=middle;whiteSpace=wrap;rounded=0;" vertex="1" parent="1">
          <mxGeometry x="108" y="725" width="201" height="30" as="geometry" />
        </mxCell>
      </root>
    </mxGraphModel>
  </diagram>
</mxfile>
